<?xml version="1.0" encoding="utf-8"?>
<!-- Generator: Adobe Illustrator 16.0.0, SVG Export Plug-In . SVG Version: 6.00 Build 0)  -->
<!DOCTYPE svg PUBLIC "-//W3C//DTD SVG 1.1//EN" "http://www.w3.org/Graphics/SVG/1.1/DTD/svg11.dtd">
<svg version="1.1" id="Layer_1" xmlns="http://www.w3.org/2000/svg" xmlns:xlink="http://www.w3.org/1999/xlink" x="0px" y="0px"
	 width="33.876px" height="33.877px" viewBox="-0.059 -0.066 33.876 33.877" enable-background="new -0.059 -0.066 33.876 33.877"
	 xml:space="preserve">
<path fill="#FFFFFF" d="M16.879-0.066c-9.354,0-16.938,7.583-16.938,16.938c0,9.356,7.584,16.939,16.938,16.939
	c9.355,0,16.938-7.584,16.938-16.939C33.817,7.517,26.234-0.066,16.879-0.066z M16.88,32.161c-7.925,0-15.29-7.364-15.29-15.29
	c0-7.924,7.365-15.289,15.29-15.289c7.924,0,15.289,7.365,15.289,15.289C32.169,24.797,24.804,32.161,16.88,32.161z"/>
<path fill="#FFFFFF" d="M20.99,12.092V8.9l-3.655,3.175h-0.119v0.103l-1.167,1.014l1.167,1.014v0.103h0.119l3.655,3.175V14.5
	c1.523,0.327,2.582,1.147,2.582,2.96c0,2.546-2.064,3.022-4.607,3.022h-4.169c-2.545,0-4.609-0.476-4.609-3.022
	c0-1.654,0.881-2.482,2.189-2.864v-2.465c-2.625,0.362-4.647,2.607-4.647,5.331c0,2.976,2.412,5.389,5.389,5.389h7.526
	c2.975,0,5.388-2.41,5.388-5.389C26.03,14.604,23.803,12.272,20.99,12.092z"/>
</svg>
