<?xml version="1.0" encoding="utf-8"?>
<!-- Generator: Adobe Illustrator 15.0.2, SVG Export Plug-In . SVG Version: 6.00 Build 0)  -->
<!DOCTYPE svg PUBLIC "-//W3C//DTD SVG 1.1//EN" "http://www.w3.org/Graphics/SVG/1.1/DTD/svg11.dtd">
<svg version="1.1" id="Layer_1" xmlns="http://www.w3.org/2000/svg" xmlns:xlink="http://www.w3.org/1999/xlink" x="0px" y="0px"
	 width="36.009px" height="36.008px" viewBox="0 0 36.009 36.008" enable-background="new 0 0 36.009 36.008" xml:space="preserve">
<path fill="#FFFFFF" d="M18.004,0C8.061,0,0,8.061,0,18.004c0,9.944,8.061,18.004,18.004,18.004c9.944,0,18.005-8.061,18.005-18.004
	C36.009,8.061,27.948,0,18.004,0z M18.005,33.256c-8.424,0-15.252-6.828-15.252-15.252c0-8.423,6.828-15.251,15.252-15.251
	c8.423,0,15.251,6.828,15.251,15.251C33.256,26.428,26.428,33.256,18.005,33.256z"/>
<path fill="#FFFFFF" d="M22.373,12.924V9.531l-3.884,3.375h-0.126v0.109l-1.241,1.078l1.241,1.078v0.109h0.126l3.884,3.375v-3.172
	c1.62,0.348,2.745,1.219,2.745,3.147c0,2.707-2.193,3.212-4.899,3.212H15.79c-2.705,0-4.899-0.505-4.899-3.212
	c0-1.759,0.936-2.639,2.327-3.045v-2.62c-2.79,0.385-4.94,2.771-4.94,5.666c0,3.163,2.563,5.728,5.728,5.728h8
	c3.163,0,5.727-2.564,5.727-5.728C27.731,15.594,25.363,13.115,22.373,12.924z"/>
</svg>
