<?xml version="1.0" encoding="utf-8"?>
<!-- Generator: Adobe Illustrator 16.0.0, SVG Export Plug-In . SVG Version: 6.00 Build 0)  -->
<!DOCTYPE svg PUBLIC "-//W3C//DTD SVG 1.1//EN" "http://www.w3.org/Graphics/SVG/1.1/DTD/svg11.dtd">
<svg version="1.1" id="Layer_1" xmlns="http://www.w3.org/2000/svg" xmlns:xlink="http://www.w3.org/1999/xlink" x="0px" y="0px"
	 width="30px" height="30px" viewBox="0 0 30 30" enable-background="new 0 0 30 30" xml:space="preserve">
<path fill="#968154" d="M1.406,13.5C0.63,13.5,0,14.129,0,14.906v0.188C0,15.871,0.63,16.5,1.406,16.5h27.188
	c0.777,0,1.406-0.629,1.406-1.406v-0.188c0-0.777-0.629-1.406-1.406-1.406H1.406z"/>
<path fill="#968154" d="M1.406,22.5C0.63,22.5,0,21.871,0,21.094v-0.188C0,20.129,0.63,19.5,1.406,19.5h27.188
	c0.777,0,1.406,0.629,1.406,1.406v0.188c0,0.777-0.629,1.406-1.406,1.406H1.406z"/>
<path fill="#968154" d="M1.406,7.5C0.63,7.5,0,8.129,0,8.906v0.188C0,9.871,0.63,10.5,1.406,10.5h27.188
	C29.371,10.5,30,9.871,30,9.094V8.906C30,8.129,29.371,7.5,28.594,7.5H1.406z"/>
</svg>
