<?xml version="1.0" encoding="utf-8"?>
<!-- Generator: Adobe Illustrator 15.0.2, SVG Export Plug-In . SVG Version: 6.00 Build 0)  -->
<!DOCTYPE svg PUBLIC "-//W3C//DTD SVG 1.1//EN" "http://www.w3.org/Graphics/SVG/1.1/DTD/svg11.dtd">
<svg version="1.1" id="Layer_1" xmlns="http://www.w3.org/2000/svg" xmlns:xlink="http://www.w3.org/1999/xlink" x="0px" y="0px"
	 width="36.009px" height="36.009px" viewBox="0 0 36.009 36.009" enable-background="new 0 0 36.009 36.009" xml:space="preserve">
<path d="M18.004,0C8.061,0,0,8.061,0,18.004c0,9.944,8.061,18.005,18.004,18.005c9.944,0,18.005-8.061,18.005-18.005
	C36.009,8.061,27.948,0,18.004,0z M18.005,33.257c-8.424,0-15.252-6.828-15.252-15.253c0-8.423,6.828-15.251,15.252-15.251
	c8.423,0,15.251,6.828,15.251,15.251C33.256,26.429,26.428,33.257,18.005,33.257z"/>
<rect x="7.672" y="16.124" width="20.666" height="3.667"/>
</svg>
