<?xml version="1.0" encoding="utf-8"?>
<!-- Generator: Adobe Illustrator 15.0.2, SVG Export Plug-In . SVG Version: 6.00 Build 0)  -->
<!DOCTYPE svg PUBLIC "-//W3C//DTD SVG 1.1//EN" "http://www.w3.org/Graphics/SVG/1.1/DTD/svg11.dtd">
<svg version="1.1" id="Layer_1" xmlns="http://www.w3.org/2000/svg" xmlns:xlink="http://www.w3.org/1999/xlink" x="0px" y="0px"
	 width="200.914px" height="200.918px" viewBox="0 0 200.914 200.918" enable-background="new 0 0 200.914 200.918"
	 xml:space="preserve">
<g>
	<path fill="#FFFFFF" d="M100.73,0.55C45.4,0.55,0.546,45.403,0.546,100.734c0,55.329,44.854,100.184,100.185,100.184
		c55.329,0,100.184-44.854,100.184-100.184C200.914,45.403,156.06,0.55,100.73,0.55z M100.729,182.897
		c-45.379,0-82.164-36.785-82.164-82.163s36.785-82.165,82.164-82.165c45.378,0,82.164,36.787,82.164,82.165
		S146.107,182.897,100.729,182.897z"/>
	<polygon fill="#FFFFFF" points="156.889,91.603 109.859,91.603 109.859,44.866 91.601,44.866 91.601,91.603 44.571,91.603 
		44.571,109.861 91.601,109.861 91.601,157.184 109.859,157.184 109.859,109.861 156.889,109.861 	"/>
</g>
</svg>
