<?xml version="1.0" encoding="utf-8"?>
<!-- Generator: Adobe Illustrator 15.0.2, SVG Export Plug-In . SVG Version: 6.00 Build 0)  -->
<!DOCTYPE svg PUBLIC "-//W3C//DTD SVG 1.1//EN" "http://www.w3.org/Graphics/SVG/1.1/DTD/svg11.dtd">
<svg version="1.1" id="Redo_Expanded" xmlns="http://www.w3.org/2000/svg" xmlns:xlink="http://www.w3.org/1999/xlink" x="0px"
	 y="0px" width="919.992px" height="881.465px" viewBox="0 0 919.992 881.465" style="enable-background:new 0 0 919.992 881.465;"
	 xml:space="preserve">
<g>
	<path d="M668.516,703.135c-64.171,59.07-147.586,91.604-234.878,91.604c-191.287,0-346.909-155.623-346.909-346.912
		c0-191.289,155.623-346.913,346.909-346.913c47.781,0,94.312,9.725,137.168,28.178l-58.854,60.287l352.684,159.354L696.828-0.001
		l-62.032,63.542C573.333,31.31,504.583,14.184,433.638,14.184c-58.521,0-115.313,11.472-168.803,34.098
		c-51.642,21.844-98.012,53.106-137.823,92.918S55.94,227.383,34.096,279.024C11.471,332.513,0,389.305,0,447.823
		c0,58.523,11.472,115.32,34.096,168.811c21.843,51.646,53.104,98.016,92.916,137.824c39.811,39.813,86.181,71.07,137.824,92.914
		c53.488,22.623,110.281,34.094,168.802,34.094c109.114,0,213.392-40.672,293.616-114.521c17.62-16.221,18.756-43.652,2.535-61.273
		C713.57,688.047,686.137,686.915,668.516,703.135z"/>
	<path d="M374.086,503.008c5.781-3.408,10.721-7.533,14.822-12.377c4.098-4.84,7.262-10.35,9.482-16.523
		c2.227-6.176,3.336-12.971,3.336-20.383c0-9.484-1.631-17.76-4.891-24.824c-3.262-7.064-7.781-12.971-13.563-17.713
		c-5.779-4.742-12.598-8.273-20.451-10.6c-7.855-2.318-16.432-3.481-25.719-3.481h-63.437v212.543h24.898v-90.412h20.454
		c4.645,0,8.818,0.568,12.523,1.703c3.707,1.139,7.164,2.939,10.375,5.41s6.35,5.656,9.412,9.561
		c3.062,3.904,6.227,8.621,9.484,14.154l35.572,59.584h29.645l-39.869-63.883c-2.867-4.645-5.461-8.721-7.781-12.229
		c-2.324-3.506-4.67-6.646-7.041-9.412s-4.867-5.162-7.484-7.188c-2.617-2.023-5.707-3.828-9.264-5.41v-0.594
		C361.807,509.061,368.305,506.417,374.086,503.008z M349.631,493.891c-5.287,1.881-11.043,2.816-17.268,2.816h-33.794v-77.074
		h34.091c13.932,0,24.578,3.189,31.938,9.563s11.043,15.242,11.043,26.604c0,6.324-1.09,12.031-3.262,17.119
		c-2.174,5.09-5.188,9.389-9.041,12.896C359.486,489.323,354.914,492.016,349.631,493.891z"/>
	<path d="M565.458,527.092c0-22.822-5.438-40.658-16.305-53.506c-10.87-12.844-26.234-19.268-46.097-19.268
		c-19.859,0-36.485,7.436-49.875,22.307c-13.391,14.871-20.084,34.115-20.084,57.73c0,25,6.126,44.391,18.379,58.174
		c12.251,13.785,29.102,20.678,50.542,20.678c21.938,0,39.574-4.842,52.914-14.525v-22.824
		c-14.329,11.264-30.04,16.896-47.134,16.896c-15.217,0-27.174-4.596-35.868-13.785c-8.694-9.188-13.241-22.23-13.636-39.129
		h107.161L565.458,527.092L565.458,527.092z M458.593,519.237c1.876-13.24,6.818-23.959,14.822-32.162
		c8.004-8.201,17.735-12.303,29.198-12.303c11.855,0,21.121,3.902,27.791,11.709s10.054,18.727,10.151,32.756H458.593z"/>
	<path d="M731.757,609.649V384.953h-24.308v93.969h-0.595c-9.484-16.398-24.653-24.604-45.503-24.604
		c-21.047,0-37.895,7.559-50.542,22.676c-12.647,15.119-18.972,35.229-18.972,60.324c0,23.42,5.707,41.924,17.119,55.508
		c11.413,13.588,26.653,20.381,45.726,20.381c23.517,0,40.907-9.783,52.173-29.348h0.594v25.789H731.757L731.757,609.649z
		 M694.775,578.079c-8.446,9.783-19.439,14.674-32.978,14.674c-13.736,0-24.679-5.061-32.83-15.189
		c-8.152-10.129-12.229-23.939-12.229-41.43c0-19.168,4.247-34.188,12.747-45.057c8.495-10.869,20.155-16.305,34.979-16.305
		c12.45,0,22.726,4.25,30.829,12.746c8.101,8.5,12.153,18.875,12.153,31.127v22.381
		C707.449,555.946,703.226,568.297,694.775,578.079z"/>
	<path d="M900.946,475.217c-12.698-13.934-30.361-20.896-52.988-20.896c-23.714,0-42.538,7.164-56.471,21.49
		c-13.934,14.326-20.898,34.236-20.898,59.73c0,23.418,6.693,42.219,20.084,56.396c13.388,14.18,31.297,21.27,53.729,21.27
		c23.021,0,41.375-7.287,55.062-21.863c13.685-14.572,20.528-33.965,20.528-58.174C919.992,508.467,913.642,489.149,900.946,475.217
		z M882.419,577.487c-8.448,10.178-20.528,15.266-36.239,15.266c-15.414,0-27.717-5.188-36.906-15.563
		c-9.188-10.375-13.782-24.555-13.782-42.537c0-18.676,4.544-33.324,13.637-43.947c9.09-10.619,21.438-15.934,37.054-15.934
		c15.711,0,27.791,5.141,36.239,15.416s12.673,24.898,12.673,43.871C895.092,552.834,890.867,567.311,882.419,577.487z"/>
</g>
</svg>
