<?xml version="1.0" encoding="utf-8"?>
<!-- Generator: Adobe Illustrator 15.0.2, SVG Export Plug-In . SVG Version: 6.00 Build 0)  -->
<!DOCTYPE svg PUBLIC "-//W3C//DTD SVG 1.1//EN" "http://www.w3.org/Graphics/SVG/1.1/DTD/svg11.dtd">
<svg version="1.1" id="Layer_1" xmlns="http://www.w3.org/2000/svg" xmlns:xlink="http://www.w3.org/1999/xlink" x="0px" y="0px"
	 width="200.914px" height="200.918px" viewBox="0 0 200.914 200.918" enable-background="new 0 0 200.914 200.918"
	 xml:space="preserve">
<g>
	<path fill="#FFFFFF" d="M101.48,2.051c-54.916,0-99.435,44.518-99.435,99.434c0,54.915,44.519,99.434,99.435,99.434
		c54.915,0,99.434-44.519,99.434-99.434C200.914,46.568,156.396,2.051,101.48,2.051z M101.479,183.032
		c-45.039,0-81.549-36.51-81.549-81.548s36.51-81.549,81.549-81.549c45.038,0,81.549,36.511,81.549,81.549
		S146.518,183.032,101.479,183.032z"/>
	<polygon fill="#FFFFFF" points="134.28,55.747 101.275,88.754 68.474,55.953 55.66,68.767 88.461,101.568 55.455,134.573 
		68.268,147.388 101.274,114.381 134.485,147.593 147.3,134.778 114.089,101.566 147.094,68.562 	"/>
</g>
</svg>
