<?xml version="1.0" encoding="utf-8"?>
<!-- Generator: Adobe Illustrator 17.1.0, SVG Export Plug-In . SVG Version: 6.00 Build 0)  -->
<!DOCTYPE svg PUBLIC "-//W3C//DTD SVG 1.1//EN" "http://www.w3.org/Graphics/SVG/1.1/DTD/svg11.dtd">
<svg version="1.1" id="Layer_1" xmlns="http://www.w3.org/2000/svg" xmlns:xlink="http://www.w3.org/1999/xlink" x="0px" y="0px"
	 viewBox="0 0 53 53" enable-background="new 0 0 53 53" xml:space="preserve">
<path opacity="0.8" fill="#FFFFFF" d="M45.8,53H7.2c-4,0-7.2-3.2-7.2-7.2V7.2C0,3.2,3.2,0,7.2,0h38.6c4,0,7.2,3.2,7.2,7.2v38.6
	C53,49.8,49.8,53,45.8,53z"/>
<path d="M44.3,26.5L44.3,26.5c0,2.2-1.7,4-3.9,4h-10v10c0,2.1-1.7,3.9-3.9,3.9h-0.1c-2.1,0-3.9-1.7-3.9-3.9v-10h-10
	c-2.1,0-3.9-1.7-3.9-3.9v-0.1c0-2.1,1.7-3.9,3.9-3.9h10v-10c0-2.1,1.7-3.9,3.9-3.9h0.1c2.1,0,3.9,1.7,3.9,3.9v10h10
	C42.6,22.6,44.3,24.3,44.3,26.5z"/>
</svg>
