<?xml version="1.0" encoding="utf-8"?>
<!-- Generator: Adobe Illustrator 17.1.0, SVG Export Plug-In . SVG Version: 6.00 Build 0)  -->
<!DOCTYPE svg PUBLIC "-//W3C//DTD SVG 1.1//EN" "http://www.w3.org/Graphics/SVG/1.1/DTD/svg11.dtd">
<svg version="1.1" id="Layer_1" xmlns="http://www.w3.org/2000/svg" xmlns:xlink="http://www.w3.org/1999/xlink" x="0px" y="0px"
	 viewBox="16 0 18 30" enable-background="new 16 0 18 30" xml:space="preserve">
<path opacity="0.8" fill="#FFFFFF" enable-background="new    " d="M33.6,14.3c-0.2-5.1-2.1-9.7-5.1-13.4c-0.8-1-2.2-1-3.1-0.2
	l-8.5,8.5c-0.7,0.7-0.8,1.7-0.3,2.5c0.6,1,1,2.1,1,3.3s-0.3,2.4-0.9,3.3c-0.5,0.8-0.3,1.8,0.3,2.5l8.6,8.6c0.9,0.9,2.3,0.8,3.1-0.2
	C31.8,25.1,33.7,20,33.6,14.3z"/>
<path d="M22.1,11.2c-0.5-0.5-0.5-1.3,0-1.8h0c0.5-0.5,1.3-0.5,1.8,0l4.7,4.7c0.2,0.2,0.3,0.5,0.4,0.8c0,0.1,0,0.2,0,0.2
	c0,0.3-0.2,0.6-0.4,0.8l-4.8,4.7c-0.5,0.5-1.3,0.5-1.8,0l0,0c-0.5-0.5-0.5-1.3,0-1.8l3.8-3.8L22.1,11.2z"/>
</svg>
