<?xml version="1.0" encoding="utf-8"?>
<!-- Generator: Adobe Illustrator 17.1.0, SVG Export Plug-In . SVG Version: 6.00 Build 0)  -->
<!DOCTYPE svg PUBLIC "-//W3C//DTD SVG 1.1//EN" "http://www.w3.org/Graphics/SVG/1.1/DTD/svg11.dtd">
<svg version="1.1" id="Layer_1" xmlns="http://www.w3.org/2000/svg" xmlns:xlink="http://www.w3.org/1999/xlink" x="0px" y="0px"
	 viewBox="0 0 50 30" enable-background="new 0 0 50 30" xml:space="preserve">
<path fill="#FFFFFF" d="M24.9,9.3v7.9v0.6c-0.5-0.3-1.2-0.5-1.9-0.4c-1.3,0.1-2.6,1.3-2.4,2.5c0.1,1,1.5,1.4,2.7,1
	c1.2-0.3,2.1-1,2.2-1.9c0-0.2,0.1-0.4,0.1-0.7c0-0.7,0-4.9,0-7.1c0.3,0,0.9,0.3,1.5,1c0.8,0.9,0.7,1.6,0.8,2.1
	C28.8,11,24.9,9.3,24.9,9.3z"/>
</svg>
