<?xml version="1.0" encoding="utf-8"?>
<!-- Generator: Adobe Illustrator 16.0.0, SVG Export Plug-In . SVG Version: 6.00 Build 0)  -->
<!DOCTYPE svg PUBLIC "-//W3C//DTD SVG 1.1//EN" "http://www.w3.org/Graphics/SVG/1.1/DTD/svg11.dtd">
<svg version="1.1" id="Layer_1" xmlns="http://www.w3.org/2000/svg" xmlns:xlink="http://www.w3.org/1999/xlink" x="0px" y="0px"
	 width="30px" height="30px" viewBox="0 0 30 30" enable-background="new 0 0 30 30" xml:space="preserve">
<path fill="#FFFFFF" d="M15-0.062c-8.305,0-15.062,6.764-15.062,15.077S6.695,30.093,15,30.093c8.307,0,15.062-6.764,15.062-15.077
	S23.307-0.062,15-0.062z M3,20.172C2.442,18.876,2.098,17.471,1.988,16h4.56c0.073,1.359,0.303,2.699,0.679,4H3V20.172z M16,8V3.325
	C17.408,4.708,18.551,6.291,19.391,8H16z M20.218,10c0.437,1.293,0.705,2.636,0.798,4H16v-4H20.218z M14,8h-3.785
	C11.139,6.149,12.403,4.448,14,3.01V8z M14,10v4H8.561c0.093-1.374,0.379-2.712,0.817-4H14z M6.548,14H1.989
	C2.102,12.541,2.446,11.146,3,9.86V10h4.255C6.87,11.294,6.63,12.634,6.548,14z M8.548,16H14v4H9.316
	C8.891,18.706,8.631,17.363,8.548,16z M14,22v5.193c-1.639-1.508-2.953-3.271-3.88-5.193H14z M16,22h3.408
	c-0.842,1.717-1.987,3.295-3.408,4.668V22z M16,20v-4h5.021c-0.084,1.373-0.362,2.711-0.791,4H16z M23,16.025
	c0-0.01,0-0.018,0-0.025h5.014c-0.111,1.471-0.455,2.876-1.014,4.173V20h-4.652C22.721,18.714,23,17.382,23,16.025z M23.016,14
	c-0.082-1.36-0.322-2.7-0.707-4H27V9.859c0.555,1.287,0.898,2.682,1.011,4.141H23.016z M26.006,8h-4.419
	c-0.903-2.11-2.207-4.067-3.86-5.771C21.197,2.971,24.152,5.098,26.006,8z M11.801,2.352C10.172,4.012,8.883,5.926,7.986,8H3.995
	C5.762,5.232,8.537,3.179,11.801,2.352z M3.976,22h3.956c0.86,2.046,2.093,3.953,3.659,5.625C8.405,26.761,5.704,24.725,3.976,22z
	 M17.729,27.802c1.678-1.698,2.998-3.667,3.904-5.802h4.393C24.174,24.918,21.21,27.059,17.729,27.802z"/>
</svg>
