<?xml version="1.0" encoding="utf-8"?>
<!-- Generator: Adobe Illustrator 17.1.0, SVG Export Plug-In . SVG Version: 6.00 Build 0)  -->
<!DOCTYPE svg PUBLIC "-//W3C//DTD SVG 1.1//EN" "http://www.w3.org/Graphics/SVG/1.1/DTD/svg11.dtd">
<svg version="1.1" id="Layer_1" xmlns="http://www.w3.org/2000/svg" xmlns:xlink="http://www.w3.org/1999/xlink" x="0px" y="0px"
	 viewBox="0 0 30 30" enable-background="new 0 0 30 30" xml:space="preserve">
<g>
	<path fill="#FFFFFF" d="M23.7,18.5l-2.5-2.5c-0.2,0.4-0.5,0.7-0.7,0.9L20.4,17c-0.2,0.2-0.3,0.3-0.4,0.4l2.5,2.5c1,1,1,2.7,0,3.7
		l-0.1,0.1c-1,1-2.7,1-3.7,0l-6.4-6.4c-0.7-0.7-0.9-1.7-0.6-2.6c0.1-0.4,0.3-0.7,0.6-1l0.1-0.1c0.1-0.1,0.3-0.3,0.4-0.4
		c1-0.6,2.4-0.5,3.2,0.4l1.3,1.3l0.2-0.1c0.1-0.1,0.2-0.1,0.3-0.2l0.1-0.1c0.2-0.2,0.3-0.4,0.4-0.7l0.1-0.4l-1.1-1.1
		c-1.6-1.6-4.1-1.7-5.8-0.4c-0.1,0.1-0.3,0.2-0.4,0.4l-0.1,0.1c-0.3,0.3-0.5,0.6-0.7,1c-1,1.7-0.7,3.9,0.7,5.3l6.4,6.4
		c1.7,1.7,4.5,1.7,6.3,0l0.1-0.1C25.4,23,25.4,20.2,23.7,18.5z"/>
	<path fill="#FFFFFF" d="M20.5,15.3c1-1.7,0.7-3.9-0.7-5.3l-6.4-6.4c-1.7-1.7-4.5-1.7-6.3,0L7,3.6C5.3,5.3,5.3,8.1,7,9.9l2.5,2.5
		c0.2-0.4,0.5-0.7,0.7-0.9l0.1-0.1c0.2-0.2,0.3-0.3,0.4-0.4L8.3,8.6c-1-1-1-2.7,0-3.7l0.1-0.1c1-1,2.7-1,3.7,0l6.4,6.4
		c0.7,0.7,0.9,1.7,0.6,2.6c-0.1,0.4-0.3,0.7-0.6,1L18.4,15c-0.1,0.1-0.3,0.3-0.4,0.4c-1,0.6-2.4,0.5-3.2-0.4l-1.3-1.3l-0.2,0.1
		C13.1,13.8,13,13.9,13,14l-0.1,0.1c-0.2,0.2-0.3,0.4-0.4,0.7l-0.1,0.4l1.1,1.1c1.6,1.6,4.1,1.7,5.8,0.4c0.1-0.1,0.3-0.2,0.4-0.4
		l0.1-0.1C20.1,15.9,20.3,15.6,20.5,15.3z"/>
</g>
</svg>
